<svg xmlns="http://www.w3.org/2000/svg" viewBox="0 0 24 24" fill="#e8dcc8">
  <path d="M12 2C6.5 2 2 6.5 2 12s4.5 10 10 10 10-4.5 10-10S17.5 2 12 2zm0 2c1.8 0 3.5.6 4.9 1.5L12 9V4zM9.5 4.3v4.2L5.5 5.5c1.1-.7 2.5-1.1 4-1.2zM4 12c0-1.8.6-3.5 1.5-4.9L9 12l-3.5 4.9C4.6 15.5 4 13.8 4 12zm5.5 7.7v-4.2l4 3c-1.1.7-2.5 1.1-4 1.2zm2.5.3v-5l4.9 3.5c-1.4.9-3.1 1.5-4.9 1.5zm6.5-3.1L15 12l3.5-4.9c.9 1.4 1.5 3.1 1.5 4.9s-.6 3.5-1.5 4.9zM12 14.5c-1.4 0-2.5-1.1-2.5-2.5s1.1-2.5 2.5-2.5 2.5 1.1 2.5 2.5-1.1 2.5-2.5 2.5z"/>
</svg>
